<svg width="0" height="0">
    <symbol id="logo" xmlns="http://www.w3.org/2000/svg" viewBox="0 0 242 53">
        <path fill-rule="evenodd" d="M238.639 43.629h-1.459v2.139h-.679v-6.061h2.25c1.356 0 2.249.727 2.249 1.922v.017c0 1.308-1.082 1.983-2.361 1.983zm1.674-1.974c0-.867-.644-1.317-1.614-1.317h-1.519v2.667h1.485c.995 0 1.648-.537 1.648-1.334v-.016zm-8.866-11.437c-5.459 0-9.502-4.184-9.502-9.407v-.052c0-5.224 4.094-9.459 9.553-9.459 5.459 0 9.502 4.183 9.502 9.407v.052c0 5.223-4.095 9.459-9.553 9.459zm4.549-9.459c0-2.625-1.845-4.912-4.549-4.912-2.679 0-4.473 2.235-4.473 4.86v.052c0 2.625 1.844 4.912 4.524 4.912 2.704 0 4.498-2.235 4.498-4.86v-.052zm-17.398 25.112c-1.829 0-3.056-1.446-3.056-3.117v-.017c0-1.671 1.244-3.135 3.073-3.135s3.056 1.447 3.056 3.118v.017c0 1.671-1.245 3.134-3.073 3.134zm2.369-3.134c0-1.377-.995-2.502-2.369-2.502s-2.353 1.108-2.353 2.485v.017c0 1.376.996 2.502 2.37 2.502 1.373 0 2.352-1.108 2.352-2.485v-.017zm-15.503-31.073h4.902v13.773h8.568v4.417h-13.47v-18.19zm-6.684 34.207c-1.888 0-3.055-1.385-3.055-3.117v-.017c0-1.663 1.21-3.135 3.013-3.135 1.013 0 1.64.294 2.24.806l-.437.519c-.464-.406-.979-.692-1.828-.692-1.332 0-2.285 1.134-2.285 2.485v.017c0 1.445.919 2.52 2.379 2.52.687 0 1.322-.269 1.734-.606v-1.508h-1.828v-.614h2.48v2.416c-.558.502-1.399.926-2.413.926zm-11.415-34.207h4.903v13.773h8.567v4.417h-13.47v-18.19zm-6.141 28.043h.679v5.428h3.382v.633h-4.061v-6.061zm-13.247-28.043h14.229v4.287h-9.376v2.755h8.491v3.976h-8.491v2.884h9.502v4.288h-14.355v-18.19zm-6.537 29.134v4.97h-.661v-6.061h.636l3.786 4.857v-4.857h.661v6.061h-.541l-3.881-4.97zm-5.774-15.18c1.845 0 2.931-.883 3.993-2.208l3.69 2.702c-1.668 2.365-3.918 4.106-7.835 4.106-5.054 0-9.123-3.976-9.123-9.407v-.052c0-5.301 3.968-9.459 9.325-9.459 3.614 0 5.939 1.559 7.506 3.794l-3.69 2.936c-1.01-1.299-2.173-2.131-3.866-2.131-2.476 0-4.22 2.157-4.22 4.808v.052c0 2.729 1.744 4.859 4.22 4.859zm-11.499 14.089h.677v6.061h-.677v-6.061zm-7.862-28.043h4.929v18.19h-4.929v-18.19zm3.091 28.674h-2.018v5.43h-.686v-5.43h-2.018v-.631h4.722v.631zm-13.178-10.484h-4.903V16.081h-5.307v-4.417h15.517v4.417h-5.307v13.773zm-6.364 14.71v-4.857h.661v6.061h-.541l-3.881-4.97v4.97h-.661v-6.061h.636l3.786 4.857zM99.476 19.875v9.979h-4.852v-18.19h4.574l7.278 9.615v-9.615h4.852v18.19h-4.296l-7.556-9.979zm-9.61 25.893h-.686v-5.43h-2.018v-.631h4.722v.631h-2.018v5.43zm-9.88-15.55c-5.459 0-9.502-4.184-9.502-9.407v-.052c0-5.224 4.094-9.459 9.553-9.459 5.459 0 9.502 4.183 9.502 9.407v.052c0 5.223-4.095 9.459-9.553 9.459zm4.549-9.459c0-2.625-1.845-4.912-4.549-4.912-2.679 0-4.473 2.235-4.473 4.86v.052c0 2.625 1.845 4.912 4.524 4.912 2.704 0 4.498-2.235 4.498-4.86v-.052zm-16.488 33.01l-.371.22L36.367.225l.37-.219 9.885 16.975v-5.317h5.181l4.22 7.042 4.22-7.042h5.181v18.19h-4.877V19.407l-4.524 7.121h-.101l-4.498-7.069v5.766l16.623 28.544zM30.983 12.958l20.555 35.19-28.619.252 2.322-5.609 16.649-.147-10.81-18.508-13.641 24.313L0 48.602 25.747 3.835l3.229 5.526L9.671 42.928l4.52-.04 16.792-29.93zm41.189 32.81h-.678v-6.061h.678v6.061zm9.619-1.204v-4.857h.661v6.061h-.541l-3.881-4.97v4.97h-.661v-6.061h.636l3.786 4.857zm19.148-4.234h-3.666v2.069h3.279v.623h-3.279v2.121h3.708v.625h-4.387v-6.061h4.345v.623zm9.139-.017c.291.294.463.719.463 1.194v.017c0 1.005-.687 1.594-1.63 1.767l1.845 2.477h-.833l-1.742-2.356h-1.717v2.356h-.679v-6.061h2.585c.738 0 1.33.225 1.708.606zm-3.614.025v2.46h1.845c.902 0 1.545-.468 1.545-1.247v-.018c0-.745-.566-1.195-1.536-1.195h-1.854zm22.049-.675l2.739 6.105h-.73l-.704-1.603h-3.271l-.713 1.603h-.695l2.739-6.105h.635zm1.039 3.888l-1.365-3.091-1.374 3.091h2.739zm23.298-3.949c1.829 0 3.056 1.447 3.056 3.118v.017c0 1.671-1.245 3.134-3.074 3.134-1.829 0-3.056-1.446-3.056-3.117v-.017c0-1.671 1.245-3.135 3.074-3.135zm-2.37 3.135c0 1.376.996 2.502 2.37 2.502 1.373 0 2.352-1.108 2.352-2.485v-.017c0-1.377-.996-2.502-2.37-2.502-1.373 0-2.352 1.108-2.352 2.485v.017zm23.381-3.074l2.738 6.105h-.729l-.704-1.603h-3.271l-.713 1.603h-.695l2.738-6.105h.636zm1.039 3.888l-1.366-3.091-1.373 3.091h2.739zm35.554-3.238c.292.294.464.719.464 1.194v.017c0 1.005-.687 1.594-1.631 1.767l1.845 2.477h-.833l-1.742-2.356h-1.717v2.356h-.679v-6.061h2.585c.738 0 1.33.225 1.708.606zm-3.614.025v2.46h1.845c.902 0 1.546-.468 1.546-1.247v-.018c0-.745-.567-1.195-1.537-1.195h-1.854zm20.289 2.849c0 1.307.687 2.043 1.837 2.043 1.108 0 1.812-.676 1.812-2v-3.523h.678v3.472c0 1.766-1.004 2.683-2.507 2.683-1.485 0-2.498-.917-2.498-2.632v-3.523h.678v3.48z"/>
    </symbol>
    <symbol id="facebook" xmlns="http://www.w3.org/2000/svg" viewBox="0 0 24 24">
        <path d="M17.525,9H14V7c0-1.032,0.084-1.682,1.563-1.682h1.868v-3.18C16.522,2.044,15.608,1.998,14.693,2 C11.98,2,10,3.657,10,6.699V9H7v4l3-0.001V22h4v-9.003l3.066-0.001L17.525,9z"/>
    </symbol>
    <symbol id="twitter" xmlns="http://www.w3.org/2000/svg" viewBox="0 0 24 24">
    <path d="M24,4.3c-0.9,0.4-1.8,0.7-2.8,0.8c1-0.6,1.8-1.6,2.2-2.7c-1,0.6-2,1-3.1,1.2C19.3,2.6,18,2,16.6,2 c-2.7,0-4.9,2.2-4.9,4.9c0,0.4,0,0.8,0.1,1.1C7.7,7.8,4.1,5.9,1.7,2.9C1.2,3.6,1,4.5,1,5.4c0,1.7,0.9,3.2,2.2,4.1 C2.4,9.4,1.6,9.2,1,8.9c0,0,0,0,0,0.1c0,2.4,1.7,4.4,3.9,4.8c-0.4,0.1-0.8,0.2-1.3,0.2c-0.3,0-0.6,0-0.9-0.1c0.6,2,2.4,3.4,4.6,3.4 c-1.7,1.3-3.8,2.1-6.1,2.1c-0.4,0-0.8,0-1.2-0.1c2.2,1.4,4.8,2.2,7.5,2.2c9.1,0,14-7.5,14-14c0-0.2,0-0.4,0-0.6 C22.5,6.2,23.3,5.3,24,4.3"/>
    </symbol>
    <symbol id="instagram" xmlns="http://www.w3.org/2000/svg" viewBox="0 0 16 16 ">
    <path d="M 4.773438 1 C 2.695313 1 1 2.695313 1 4.773438 L 1 10.230469 C 1 12.304688 2.695313 14 4.773438 14 L 10.230469 14 C 12.304688 14 14 12.304688 14 10.226563 L 14 4.773438 C 14 2.695313 12.304688 1 10.226563 1 Z M 4.773438 2 L 10.226563 2 C 11.765625 2 13 3.234375 13 4.773438 L 13 10.226563 C 13 11.765625 11.765625 13 10.230469 13 L 4.773438 13 C 3.234375 13 2 11.765625 2 10.230469 L 2 4.773438 C 2 3.234375 3.234375 2 4.773438 2 Z M 11.5 3 C 11.222656 3 11 3.222656 11 3.5 C 11 3.777344 11.222656 4 11.5 4 C 11.777344 4 12 3.777344 12 3.5 C 12 3.222656 11.777344 3 11.5 3 Z M 7.5 4 C 5.574219 4 4 5.574219 4 7.5 C 4 9.425781 5.574219 11 7.5 11 C 9.425781 11 11 9.425781 11 7.5 C 11 5.574219 9.425781 4 7.5 4 Z M 7.5 5 C 8.886719 5 10 6.113281 10 7.5 C 10 8.886719 8.886719 10 7.5 10 C 6.113281 10 5 8.886719 5 7.5 C 5 6.113281 6.113281 5 7.5 5 Z"/>
    </symbol>
    <symbol id="arrow" xmlns="http://www.w3.org/2000/svg" viewBox="0 0 491.996 491.996">
<path d="M484.132,124.986l-16.116-16.228c-5.072-5.068-11.82-7.86-19.032-7.86c-7.208,0-13.964,2.792-19.036,7.86l-183.84,183.848
			L62.056,108.554c-5.064-5.068-11.82-7.856-19.028-7.856s-13.968,2.788-19.036,7.856l-16.12,16.128
			c-10.496,10.488-10.496,27.572,0,38.06l219.136,219.924c5.064,5.064,11.812,8.632,19.084,8.632h0.084
			c7.212,0,13.96-3.572,19.024-8.632l218.932-219.328c5.072-5.064,7.856-12.016,7.864-19.224
			C491.996,136.902,489.204,130.046,484.132,124.986z"/>
    </symbol>
    <symbol id="location" xmlns="http://www.w3.org/2000/svg" viewBox="0 0 32 32">
<path d="M15.938 32c0 0-9.938-14.062-9.938-20.062 0-11.813 9.938-11.938 9.938-11.938s10.062 0.125 10.062 11.875c0 6.187-10.062 20.125-10.062 20.125zM16 6c-2.209 0-4 1.791-4 4s1.791 4 4 4 4-1.791 4-4-1.791-4-4-4z"></path>
    </symbol>
    <symbol id="marker" xmlns="http://www.w3.org/2000/svg" viewBox="0 0 425.963 425.963">
    <path d="M213.285,0h-0.608C139.114,0,79.268,59.826,79.268,133.361c0,48.202,21.952,111.817,65.246,189.081   c32.098,57.281,64.646,101.152,64.972,101.588c0.906,1.217,2.334,1.934,3.847,1.934c0.043,0,0.087,0,0.13-0.002   c1.561-0.043,3.002-0.842,3.868-2.143c0.321-0.486,32.637-49.287,64.517-108.976c43.03-80.563,64.848-141.624,64.848-181.482   C346.693,59.825,286.846,0,213.285,0z M274.865,136.62c0,34.124-27.761,61.884-61.885,61.884   c-34.123,0-61.884-27.761-61.884-61.884s27.761-61.884,61.884-61.884C247.104,74.736,274.865,102.497,274.865,136.62z" data-original="#000000" class="active-path" data-old_color="#000000" fill="#7E5AFF"/>
        </symbol>

        <symbol id="phone" xmlns="http://www.w3.org/2000/svg" viewBox="0 0 513.64 513.64">
    <path d="M499.66,376.96l-71.68-71.68c-25.6-25.6-69.12-15.359-79.36,17.92c-7.68,23.041-33.28,35.841-56.32,30.72    c-51.2-12.8-120.32-79.36-133.12-133.12c-7.68-23.041,7.68-48.641,30.72-56.32c33.28-10.24,43.52-53.76,17.92-79.36l-71.68-71.68    c-20.48-17.92-51.2-17.92-69.12,0l-48.64,48.64c-48.64,51.2,5.12,186.88,125.44,307.2c120.32,120.32,256,176.641,307.2,125.44    l48.64-48.64C517.581,425.6,517.581,394.88,499.66,376.96z" data-original="#000000" class="active-path" data-old_color="#000000" fill="#7E5AFF"/></symbol> 

     <symbol id="mail" xmlns="http://www.w3.org/2000/svg" viewBox="0 0 512 512" ><path d="M467,61H45C20.218,61,0,81.196,0,106v300c0,24.72,20.128,45,45,45h422c24.72,0,45-20.128,45-45V106    C512,81.28,491.872,61,467,61z M460.786,91L256.954,294.833L51.359,91H460.786z M30,399.788V112.069l144.479,143.24L30,399.788z     M51.213,421l144.57-144.57l50.657,50.222c5.864,5.814,15.327,5.795,21.167-0.046L317,277.213L460.787,421H51.213z M482,399.787    L338.213,256L482,112.212V399.787z" data-original="#000000" class="active-path" data-old_color="#000000" fill="#7E5AFF"/></symbol>

     <symbol id="time" xmlns="http://www.w3.org/2000/svg" viewBox="0 0 97.16 97.16" >
     <path d="M48.58,0C21.793,0,0,21.793,0,48.58s21.793,48.58,48.58,48.58s48.58-21.793,48.58-48.58S75.367,0,48.58,0z M48.58,86.823    c-21.087,0-38.244-17.155-38.244-38.243S27.493,10.337,48.58,10.337S86.824,27.492,86.824,48.58S69.667,86.823,48.58,86.823z" data-original="#000000" class="active-path" data-old_color="#000000" fill="#7E5AFF"/>
	<path d="M73.898,47.08H52.066V20.83c0-2.209-1.791-4-4-4c-2.209,0-4,1.791-4,4v30.25c0,2.209,1.791,4,4,4h25.832    c2.209,0,4-1.791,4-4S76.107,47.08,73.898,47.08z" data-original="#000000" class="active-path" data-old_color="#000000" fill="#7E5AFF"/>
    </symbol>
</svg>
